<?xml version="1.0" encoding="UTF-8"?>
<svg version="1.1" xmlns="http://www.w3.org/2000/svg" width="179" height="112">
<path d="M0 0 C3.05992005 1.61656154 5.24119476 3.0762371 7.4375 5.75 C9.42490961 13.69963844 4.91278131 21.8544138 1.9375 29 C1.46505859 30.15628906 0.99261719 31.31257813 0.50585938 32.50390625 C-0.65419315 35.3395902 -1.822979 38.17132706 -3 41 C-2.31591064 41.11335693 -1.63182129 41.22671387 -0.92700195 41.34350586 C2.47474942 42.10648104 5.57625651 43.25609831 8.83203125 44.50390625 C9.46864182 44.7466478 10.10525238 44.98938934 10.76115417 45.23948669 C12.77970422 46.01013308 14.79610901 46.78622437 16.8125 47.5625 C18.18671056 48.08825252 19.56105817 48.61364697 20.93554688 49.13867188 C24.29196069 50.42164098 27.64647364 51.7094994 31 53 C32.84835147 50.2274728 33.87645167 47.91792744 35.0234375 44.81640625 C35.59578125 43.30143555 35.59578125 43.30143555 36.1796875 41.75585938 C36.97432268 39.63293696 37.76342212 37.50793394 38.546875 35.38085938 C39.12308594 33.86395508 39.12308594 33.86395508 39.7109375 32.31640625 C40.05431152 31.39287354 40.39768555 30.46934082 40.75146484 29.51782227 C42.13675947 26.72420797 43.64294626 25.02478566 46 23 C50.14459792 21.64318172 53.84663012 21.52360809 57.875 23.1875 C62.87695163 27.45387051 62.87695163 27.45387051 63.1796875 31.2578125 C63.18675946 33.51376749 63.12991752 35.74809636 63 38 C63.88751953 38.00386719 63.88751953 38.00386719 64.79296875 38.0078125 C69.35156908 38.23090876 71.46295496 38.55063578 75.0625 41.5625 C77.34522599 45.61249773 77.88569272 48.5166705 77 53 C75.85891506 56.42815219 74.50673325 59.717474 73 63 C73.64066406 63.26296875 74.28132812 63.5259375 74.94140625 63.796875 C77 65 77 65 77.9375 68.25 C79.07573567 71.40661869 80.0917821 72.05346191 83.078125 73.79296875 C86.35629156 75.28659226 89.64345001 76.69281291 93 78 C92.27758802 82.11704694 90.97646289 85.30487372 89 89 C88.32453125 88.79503906 87.6490625 88.59007813 86.953125 88.37890625 C86.06109375 88.10949219 85.1690625 87.84007813 84.25 87.5625 C83.36828125 87.29566406 82.4865625 87.02882813 81.578125 86.75390625 C80.72734375 86.50511719 79.8765625 86.25632812 79 86 C78.2678125 85.7834375 77.535625 85.566875 76.78125 85.34375 C74.94162933 84.79452485 74.94162933 84.79452485 73.25 85.9375 C69.8270458 87.55389504 66.76077557 87.12535919 63 87 C62.84144531 87.58007812 62.68289062 88.16015625 62.51953125 88.7578125 C60.87948626 94.24879187 59.37458135 98.19601622 55 102 C51.92494188 103.05722885 49.23169881 103.36349512 46 103 C43.22075938 101.5111211 41.21243017 100.21243017 39 98 C38.5875 98.78375 38.175 99.5675 37.75 100.375 C35.8809369 103.17859466 35.16931083 104.03159947 32 105 C27.71738649 105.47584595 25.52559976 105.27767535 21.6875 103.25 C19.09303836 101.07789258 18.19053734 100.05513668 17 97 C16.58635723 90.08903595 19.38320962 83.83503056 22.0625 77.625 C22.80792581 75.8691081 23.54901939 74.11136888 24.28515625 72.3515625 C24.61394775 71.58666504 24.94273926 70.82176758 25.28149414 70.03369141 C26.16656103 67.88803892 26.16656103 67.88803892 26 65 C14.78 60.71 3.56 56.42 -8 52 C-8.33 53.65 -8.66 55.3 -9 57 C-10.15001694 60.56530305 -11.49070893 64.0577146 -12.8125 67.5625 C-13.15603516 68.50802734 -13.49957031 69.45355469 -13.85351562 70.42773438 C-17.21885886 79.36199455 -17.21885886 79.36199455 -21 82 C-25.14459792 83.35681828 -28.84663012 83.47639191 -32.875 81.8125 C-37.87695163 77.54612949 -37.87695163 77.54612949 -38.1796875 73.7421875 C-38.18675946 71.48623251 -38.12991752 69.25190364 -38 67 C-39.03125 67.103125 -40.0625 67.20625 -41.125 67.3125 C-46.19970101 66.90324992 -47.46272683 65.53727317 -51 62 C-53.06092568 57.87814865 -52.48488829 53.49066093 -51.10546875 49.25 C-50.12282167 46.80553518 -49.09897971 44.3942058 -48 42 C-48.6290625 41.73832031 -49.258125 41.47664063 -49.90625 41.20703125 C-52 40 -52 40 -53.5 36.6875 C-56.31263358 31.17750471 -62.48541203 29.88154967 -68 28 C-67.5251065 23.88425629 -66.9789756 20.63616656 -65 17 C-64.41992188 17.13277344 -63.83984375 17.26554687 -63.2421875 17.40234375 C-60.83075738 17.94750204 -58.4157067 18.47415877 -56 19 C-54.906875 19.2475 -53.81375 19.495 -52.6875 19.75 C-50.05447481 20.23354052 -50.05447481 20.23354052 -48.125 19.0625 C-44.79576976 17.39788488 -41.68973017 17.87700899 -38 18 C-37.76216797 17.12988281 -37.76216797 17.12988281 -37.51953125 16.2421875 C-35.87948626 10.75120813 -34.37458135 6.80398378 -30 3 C-26.13867267 1.64998706 -22.70633355 1.32308157 -18.86328125 2.84765625 C-16.9375 3.9375 -16.9375 3.9375 -14 6 C-13.21625 5.195625 -12.4325 4.39125 -11.625 3.5625 C-7.68567941 -0.28302724 -5.48402115 -0.45700176 0 0 Z M-10 6 C-11.56463384 9.11490451 -11.56463384 9.11490451 -12.625 12.625 C-13.7890625 16.1640625 -13.7890625 16.1640625 -15 19 C-15.99 19.33 -16.98 19.66 -18 20 C-17.505 18.515 -17.505 18.515 -17 17 C-16.49999138 11.96317365 -16.49999138 11.96317365 -18.75 7.625 C-21.612389 5.52952286 -21.612389 5.52952286 -25 5 C-29.96508851 7.17979495 -31.8657671 10.18793872 -33.84765625 15.1015625 C-34.59086941 17.05811435 -35.29818054 19.02822151 -36 21 C-37.19625 20.9175 -38.3925 20.835 -39.625 20.75 C-44.08253875 20.73416505 -46.5439542 22.1340108 -50 25 C-51.58873246 28.17746491 -51.41026221 31.54012202 -51 35 C-49.66169042 37.4595774 -49.66169042 37.4595774 -48 39 C-47.01 38.505 -47.01 38.505 -46 38 C-46.7425 36.948125 -46.7425 36.948125 -47.5 35.875 C-49.1936681 32.62880281 -49.25162315 30.60659844 -49 27 C-48.01 27 -47.02 27 -46 27 C-46 29.31 -46 31.62 -46 34 C-45.34 34 -44.68 34 -44 34 C-44 33.34 -44 32.68 -44 32 C-43.01 32 -42.02 32 -41 32 C-41.9570262 34.72963132 -42.91557346 37.45871242 -43.875 40.1875 C-44.14441406 40.95642578 -44.41382813 41.72535156 -44.69140625 42.51757812 C-45.79928103 45.66556379 -46.9080805 48.78083039 -48.19921875 51.859375 C-49.36317219 54.97082126 -49.00185726 56.86084725 -48 60 C-45.9315113 62.5714939 -45.9315113 62.5714939 -43 64 C-39.16331186 64.07829976 -37.61011027 63.57524682 -34.8125 60.9375 C-32.61771387 57.38043282 -31.34124119 53.95666151 -30 50 C-28.31235182 55.16699716 -30.86619374 59.24085527 -32.90625 63.98046875 C-34.69995082 68.38998325 -35.39516784 71.25215842 -34 76 C-32.39972931 78.32039251 -31.27224989 78.89969741 -28.625 79.875 C-25.14306917 80.04080623 -23.79524284 79.03725292 -21 77 C-19.49781056 74.71862915 -19.49781056 74.71862915 -18.47558594 72.04516602 C-18.06240112 71.06339386 -17.64921631 70.0816217 -17.22351074 69.07009888 C-16.8197522 68.05696625 -16.41599365 67.04383362 -16 66 C-15.61783325 65.05623505 -15.2356665 64.11247009 -14.84191895 63.1401062 C-13.66804757 60.19443964 -12.52552703 57.23823084 -11.390625 54.27734375 C-10.97834656 53.21004532 -10.56606812 52.14274689 -10.14129639 51.04310608 C-8.84112667 47.6757455 -7.54535122 44.30671673 -6.25 40.9375 C-4.93956226 37.53646475 -3.62820325 34.13578814 -2.31585693 30.73548889 C-1.5032487 28.62924514 -0.69188799 26.52251957 0.11810303 24.41526794 C0.48228333 23.46990677 0.84646362 22.52454559 1.22167969 21.55053711 C1.54191101 20.71767685 1.86214233 19.88481659 2.19207764 19.02671814 C3 17 3 17 4 15 C4.39526866 10.95671495 4.39526866 10.95671495 4 7 C1.89286554 4.38036865 1.89286554 4.38036865 -1 3 C-5.37176469 3 -6.64316339 3.33843052 -10 6 Z M-63 21 C-63.66 22.65 -64.32 24.3 -65 26 C-61.7 26.99 -58.4 27.98 -55 29 C-54.34 27.35 -53.68 25.7 -53 24 C-56.3 23.01 -59.6 22.02 -63 21 Z M46 28 C44.97444001 29.86254139 44.97444001 29.86254139 44.09350586 32.01855469 C43.57625443 33.22844055 43.57625443 33.22844055 43.04855347 34.46276855 C41.35095892 38.57051356 39.69281041 42.6916842 38.06640625 46.828125 C37.52668434 48.19442047 37.52668434 48.19442047 36.97605896 49.58831787 C36.219714 51.50399971 35.46427913 53.42004109 34.7097168 55.33642578 C33.19844911 59.17457614 31.68251811 63.01087978 30.1668396 66.84729004 C29.08866958 69.58411188 28.01909403 72.32419008 26.94970703 75.06445312 C25.76997324 78.07836001 24.55715229 81.07072387 23.28076172 84.04492188 C22.80525879 85.17994141 22.32975586 86.31496094 21.83984375 87.484375 C21.22484009 88.89541504 21.22484009 88.89541504 20.59741211 90.33496094 C19.81642201 93.81893637 20.57677928 95.77270868 22 99 C23.63450124 101.05945016 23.63450124 101.05945016 26 102 C29.49824829 101.92711983 31.34787544 101.53951861 34.05859375 99.296875 C36.25750908 96.69534137 37.06307469 94.55306085 38.0625 91.3125 C38.97265625 88.36328125 38.97265625 88.36328125 40 86 C41.485 85.505 41.485 85.505 43 85 C42.67 85.99 42.34 86.98 42 88 C41.49999138 93.03682635 41.49999138 93.03682635 43.75 97.375 C46.612389 99.47047714 46.612389 99.47047714 50 100 C54.35966344 98.54677885 55.76674732 95.91506652 57.75 92 C58.99922987 89.3434099 60.07090629 86.78728114 61 84 C62.216875 84.061875 63.43375 84.12375 64.6875 84.1875 C68.59741696 84.1875 70.87269312 83.48344958 74 81 C76.45416273 77.3187559 76.59384154 74.27738037 76 70 C74.66169042 67.5404226 74.66169042 67.5404226 73 66 C72.01 66.495 72.01 66.495 71 67 C71.495 67.70125 71.99 68.4025 72.5 69.125 C74.1936681 72.37119719 74.25162315 74.39340156 74 78 C73.01 78 72.02 78 71 78 C71 75.69 71 73.38 71 71 C68.525 71.495 68.525 71.495 66 72 C66.24758057 71.39526855 66.49516113 70.79053711 66.75024414 70.16748047 C67.86955033 67.4092185 68.96613361 64.64245572 70.0625 61.875 C70.45244141 60.92367187 70.84238281 59.97234375 71.24414062 58.9921875 C73.99441338 52.16239297 73.99441338 52.16239297 73 45 C71.30924069 42.41936737 70.08682674 42.02831307 67.125 41.0625 C63.97689858 40.75724883 63.97689858 40.75724883 61.375 42.3125 C58.03959579 46.08677318 56.61349845 50.27668609 55 55 C54.34 55 53.68 55 53 55 C54.47022411 49.76511112 56.06774175 44.73585391 58.25 39.75 C59.87590686 35.78179054 60.52889868 33.17898974 59 29 C57.39972931 26.67960749 56.27224989 26.10030259 53.625 25.125 C49.97176004 24.95103619 48.76980032 25.58530228 46 28 Z M-4 44 C-4.66 45.65 -5.32 47.3 -6 49 C-1.33862655 50.85574144 3.32447725 52.70703891 7.98925781 54.55419922 C9.57665868 55.18350652 11.16357559 55.81403596 12.75 56.44580078 C15.02739033 57.35248681 17.30647201 58.25479598 19.5859375 59.15625 C20.29744965 59.44060913 21.00896179 59.72496826 21.74203491 60.01794434 C25.26340363 61.49376437 25.26340363 61.49376437 29 62 C29.33 60.35 29.66 58.7 30 57 C22.79792529 53.49172941 15.41607274 50.54712235 7.9375 47.6875 C6.99688721 47.32591797 6.05627441 46.96433594 5.0871582 46.59179688 C4.20116943 46.25599609 3.31518066 45.92019531 2.40234375 45.57421875 C1.60304443 45.27088623 0.80374512 44.96755371 -0.01977539 44.6550293 C-1.96884385 43.89531674 -1.96884385 43.89531674 -4 44 Z M79 76 C78.67 77.65 78.34 79.3 78 81 C79.28913487 81.67154933 80.58140204 82.33708859 81.875 83 C82.59429687 83.37125 83.31359375 83.7425 84.0546875 84.125 C85.94848977 85.13673746 85.94848977 85.13673746 88 85 C88.33 83.35 88.66 81.7 89 80 C84.05 78.02 84.05 78.02 79 76 Z " fill="#FFFFFF" transform="translate(77,5)"/>
<path d="M0 0 C0.99 0.33 1.98 0.66 3 1 C0.81659819 8.86379677 -1.99285026 16.41675284 -5 24 C-6.32 23.67 -7.64 23.34 -9 23 C-8.06745036 20.28987192 -7.12915006 17.58196565 -6.1875 14.875 C-5.79594727 13.73417969 -5.79594727 13.73417969 -5.39648438 12.5703125 C-3.87195297 8.20375341 -2.17844114 4.09520766 0 0 Z " fill="#FFFFFF" transform="translate(57,28)"/>
<path d="M0 0 C0.99 0 1.98 0 3 0 C2.45026573 5.83028038 0.7546141 10.58290168 -1.5625 15.9375 C-1.89185547 16.71673828 -2.22121094 17.49597656 -2.56054688 18.29882812 C-3.36633349 20.20235303 -4.18214217 22.10163025 -5 24 C-5.99 24 -6.98 24 -8 24 C-7.3661521 18.482845 -5.49435691 13.73252191 -3.4375 8.625 C-2.9434668 7.37783203 -2.9434668 7.37783203 -2.43945312 6.10546875 C-1.63155238 4.06815382 -0.8182989 2.03315558 0 0 Z " fill="#FFFFFF" transform="translate(127,63)"/>
<path d="M0 0 C0.99 0 1.98 0 3 0 C2.39363767 5.76044212 0.24341721 10.72014369 -2 16 C-2.99 16 -3.98 16 -5 16 C-4.49228528 10.03435204 -2.61407872 5.36190101 0 0 Z " fill="#FFFFFF" transform="translate(106,83)"/>
<path d="M0 0 C0.99 0 1.98 0 3 0 C1.43551329 5.6143991 -0.16395187 10.86810338 -3 16 C-3.99 15.67 -4.98 15.34 -6 15 C-4.36041242 9.76727367 -2.61047965 4.84803364 0 0 Z " fill="#FFFFFF" transform="translate(51,61)"/>
<path d="M0 0 C0.99 0.33 1.98 0.66 3 1 C2.26945795 3.32036923 1.51717043 5.62925915 0.75 7.9375 C0.54503906 8.59685547 0.34007812 9.25621094 0.12890625 9.93554688 C-0.515625 11.83984375 -0.515625 11.83984375 -2 15 C-4.171875 15.94140625 -4.171875 15.94140625 -6 16 C-5.3739007 12.37384158 -4.38690533 9.15607632 -3 5.75 C-2.649375 4.87859375 -2.29875 4.0071875 -1.9375 3.109375 C-1 1 -1 1 0 0 Z " fill="#FFFFFF" transform="translate(131,38)"/>
<path d="M0 0 C0.99 0 1.98 0 3 0 C2.39363767 5.76044212 0.24341721 10.72014369 -2 16 C-2.99 16 -3.98 16 -5 16 C-4.39363767 10.23955788 -2.24341721 5.27985631 0 0 Z " fill="#FFFFFF" transform="translate(75,16)"/>
<path d="M0 0 C0.99 0.33 1.98 0.66 3 1 C2.47731534 3.76276177 1.89130413 6.3260876 1 9 C0.01 9 -0.98 9 -2 9 C-1.125 2.25 -1.125 2.25 0 0 Z " fill="#FFFFFF" transform="translate(68,34)"/>
<path d="M0 0 C0.99 0 1.98 0 3 0 C2.125 6.75 2.125 6.75 1 9 C0.01 8.67 -0.98 8.34 -2 8 C-1.47731534 5.23723823 -0.89130413 2.6739124 0 0 Z " fill="#FFFFFF" transform="translate(110,72)"/>
<path d="M0 0 C0.66 0.33 1.32 0.66 2 1 C1.67 2.98 1.34 4.96 1 7 C-0.32 7.33 -1.64 7.66 -3 8 C-2.25 2.25 -2.25 2.25 0 0 Z " fill="#FFFFFF" transform="translate(142,79)"/>
<path d="M0 0 C0.99 0 1.98 0 3 0 C2.67 1.65 2.34 3.3 2 5 C0.68 5.33 -0.64 5.66 -2 6 C-1.34 4.02 -0.68 2.04 0 0 Z " fill="#FFFFFF" transform="translate(37,28)"/>
</svg>
